# xmcd CD database file
#
# Track frame offsets:
#	150
#	40255
#	76285
#	126574
#
# Disc length: 2085 seconds
#
# Revision: 0
# Processed by: cddbd v1.5PL3 Copyright (c) Steve Scherf et al.
# Submitted via: CDex 1.50
#
DISCID=2f082304
DTITLE=Pat Metheny Group - Live at the "Great American Music Hall"
DYEAR=1977
DGENRE=Jazz
TTITLE0=Phase Dance
TTITLE1=Watercolors
TTITLE2=San Lorenzo
TTITLE3=Wrong is Right
EXTD=YEAR: 1977
EXTT0=
EXTT1=
EXTT2=
EXTT3=
PLAYORDER=
